<svg xmlns="http://www.w3.org/2000/svg" width="55.778" height="76.042" viewBox="0 0 55.778 76.042">
  <path id="Caminho_809" data-name="Caminho 809" d="M71.031,72.613c.013-14.2.026-30.067.005-39.066a6.129,6.129,0,0,0-5.974-6.261h-.1A5.653,5.653,0,0,0,61.465,28.4V22.067a6.14,6.14,0,0,0-5.964-6.3A5.728,5.728,0,0,0,51.964,17a6.084,6.084,0,0,0-5.908-5.361h-.111a6.081,6.081,0,0,0-5.916,6.279v2.2a6.085,6.085,0,0,0-3.5-1.174,6.18,6.18,0,0,0-6.005,6.305l-.02,28.557L28.9,51.846a8.155,8.155,0,0,0-5.761-3.027,8.017,8.017,0,0,0-6.01,2.127l-1.405,1.163a1.248,1.248,0,0,0-.312,1.538L29.085,79.909A14.072,14.072,0,0,0,41.5,87.682H56.837C64.655,87.682,71.023,80.939,71.031,72.613Zm-2.5,0c-.007,6.948-5.251,12.568-11.69,12.568H41.5a11.578,11.578,0,0,1-10.195-6.425L18.1,53.4l.651-.54a.481.481,0,0,0,.048-.042,5.547,5.547,0,0,1,4.166-1.495,5.677,5.677,0,0,1,4,2.119L30.789,58.1a1.252,1.252,0,0,0,2.219-.794l.022-32.049a3.48,3.48,0,1,1,6.941-.148c0,3.237,0,6.761,0,10.114,0,7.585,0,14.135,0,14.77a1.252,1.252,0,0,0,2.5.009c0-.639,0-7.191,0-14.779,0-3.272,0-6.707,0-9.879,0-.027,0-.053,0-.081,0-.064,0-.124,0-.187V17.934a3.641,3.641,0,0,1,3.471-3.791h.111a3.666,3.666,0,0,1,3.518,3.778V49.992a1.251,1.251,0,1,0,2.5,0V22.067a3.459,3.459,0,1,1,6.884,0V49.991a1.252,1.252,0,0,0,2.5,0V33.531a3.611,3.611,0,0,1,3.492-3.741h.1a3.626,3.626,0,0,1,3.471,3.763C68.553,42.548,68.541,58.415,68.527,72.61Z" transform="translate(-15.269 -11.64)" fill="#242e36"/>
</svg>
