<svg xmlns="http://www.w3.org/2000/svg" width="55.778" height="76.042" viewBox="0 0 55.778 76.042">
  <path id="Caminho_810" data-name="Caminho 810" d="M37,86.429H52.332a14.073,14.073,0,0,0,12.416-7.773L78.422,52.394a1.248,1.248,0,0,0-.311-1.538l-1.406-1.163a8.019,8.019,0,0,0-6.01-2.127,8.156,8.156,0,0,0-5.76,3.027l-1.61,1.96L63.305,24a6.18,6.18,0,0,0-6-6.306,6.089,6.089,0,0,0-3.5,1.175v-2.2a6.081,6.081,0,0,0-5.915-6.28h-.111a6.084,6.084,0,0,0-5.909,5.361,5.732,5.732,0,0,0-3.536-1.236,6.14,6.14,0,0,0-5.964,6.3v6.33a5.652,5.652,0,0,0-3.492-1.111h-.1a6.129,6.129,0,0,0-5.975,6.26c-.02,9-.007,24.869.006,39.066C22.81,79.686,29.177,86.429,37,86.429ZM25.3,32.3a3.625,3.625,0,0,1,3.471-3.763h.1a3.612,3.612,0,0,1,3.492,3.741v16.46a1.251,1.251,0,1,0,2.5,0V20.815a3.46,3.46,0,1,1,6.885,0V48.739a1.251,1.251,0,1,0,2.5,0V16.668a3.665,3.665,0,0,1,3.518-3.777h.111a3.641,3.641,0,0,1,3.471,3.79v7.137c0,.063,0,.124,0,.188a.713.713,0,0,0,0,.08c0,3.172,0,6.607,0,9.879,0,7.588,0,14.14,0,14.779a1.252,1.252,0,1,0,2.5-.008c0-.635,0-7.186,0-14.771,0-3.352,0-6.876,0-10.113A3.48,3.48,0,1,1,60.8,24l.023,32.048a1.251,1.251,0,0,0,2.218.794l3.827-4.658a5.67,5.67,0,0,1,4-2.118,5.539,5.539,0,0,1,4.165,1.495l.048.042.651.539L62.527,77.5a11.577,11.577,0,0,1-10.195,6.424H37c-6.44,0-11.684-5.62-11.691-12.567C25.292,57.162,25.279,41.295,25.3,32.3Z" transform="translate(-22.786 -10.387)" fill="#242e36"/>
</svg>
